Coordinates
version=1
nRows=10
nColumns=28
inDegrees=yes

Units are S.I. units (second, meters, Newtons, ...)
Angles are in degrees.

endheader
time	pelvis_tilt	pelvis_list	pelvis_rotation	pelvis_tx	pelvis_ty	pelvis_tz	hip_flexion_r	hip_adduction_r	hip_rotation_r	knee_angle_r	ankle_angle_r	subtalar_angle_r	mtp_angle_r	hip_flexion_l	hip_adduction_l	hip_rotation_l	knee_angle_l	socket_flexion	socket_adduction	socket_rotation	socket_tx	socket_ty	socket_tz	foot_flex	lumbar_extension	lumbar_bending	lumbar_rotation
      0.00000000	     -1.08959212	     -9.37300105	    -12.48601198	     -0.88205574	      0.98250491	      0.32417312	    -22.77036593	      9.95519614	     14.66348234	     -7.31814993	      9.42928605	    -14.40882484	     17.58018286	     29.06740505	    -13.69897478	      6.12460849	    -12.24256092	     -4.14657284	     -0.98819219	      2.81062621	      0.00000000	     -0.00113127	      0.00000000	      2.26370617	    -11.36773468	      6.11385589	     18.85172067
      0.00416667	     -1.15868224	     -9.41284739	    -12.40651462	     -0.87682476	      0.98178020	      0.32366868	    -22.87760960	      9.97944203	     14.72830151	     -7.52399816	      9.38930616	    -14.40090800	     17.58756621	     28.95292564	    -13.62101888	      6.11194277	    -12.26085729	     -4.14904269	     -1.02602207	      2.81743664	      0.00000000	     -0.00138760	      0.00000000	      2.18220062	    -11.23440037	      6.16976582	     18.85492204
      0.00833333	     -1.27174801	     -9.57022198	    -12.51938666	     -0.87159174	      0.98106214	      0.32334797	    -22.77456337	     10.08858191	     14.71104983	     -8.14006112	      9.16787182	    -14.44147009	     17.69862635	     28.75735120	    -13.77581872	      5.91962534	    -12.09700341	     -4.07410303	     -1.05786306	      2.95340394	      0.00000000	     -0.00197975	      0.00000000	      1.82130808	    -11.15901336	      6.37276428	     18.89423410
      0.01250000	     -1.34281092	     -9.60689524	    -12.44172809	     -0.86585159	      0.98030363	      0.32281935	    -22.88948863	     10.10166590	     14.77623633	     -8.37227144	      9.12196144	    -14.43773183	     17.70589055	     28.60951437	    -13.69173362	      5.90132860	    -12.11813472	     -4.09301562	     -1.09695898	      2.95558879	      0.00000000	     -0.00235687	      0.00000000	      1.72246890	    -10.99833450	      6.43461720	     18.89946418
      0.01666667	     -1.42785045	     -9.70493119	    -12.50397112	     -0.86020976	      0.97958687	      0.32241936	    -22.82759171	     10.15597313	     14.73511766	     -8.95692373	      8.89312008	    -14.49637520	     17.72577229	     28.39417838	    -13.74755359	      5.76086178	    -12.02175308	     -4.09025615	     -1.13363907	      3.05949989	      0.00000000	     -0.00298491	      0.00000000	      1.22294944	    -10.92952070	      6.55640923	     18.90216804
      0.02083333	     -1.58934443	     -9.74402427	    -12.82296324	     -0.85417081	      0.97894340	      0.32249978	    -22.72398078	     10.07725454	     14.95843188	     -9.51782061	      8.69248127	    -14.49167006	     18.24923719	     28.03699647	    -13.91231983	      5.12567658	    -11.62551792	     -3.89425953	     -1.20172106	      3.37710890	      0.00000000	     -0.00378831	      0.00000000	      0.99172213	    -10.70081993	      6.57746737	     19.27773742
      0.02500000	     -1.64892311	     -9.77788542	    -12.72834378	     -0.84799470	      0.97818045	      0.32190367	    -22.83093567	     10.09078402	     15.02444199	     -9.81509624	      8.61233261	    -14.49399921	     18.25031872	     27.85078706	    -13.80745828	      5.13584001	    -11.66326740	     -3.91515855	     -1.23501062	      3.40630819	      0.00000000	     -0.00431779	      0.00000000	      0.90070357	    -10.53385035	      6.64793069	     19.27343560
      0.02916667	     -1.69952453	     -9.87214605	    -12.75859719	     -0.84213915	      0.97756042	      0.32143271	    -22.73185340	     10.14876241	     14.91229431	    -10.53734795	      8.25281623	    -14.58779855	     18.23831024	     27.59946241	    -13.83780539	      5.05191783	    -11.60974327	     -3.91631224	     -1.27563937	      3.54268189	      0.00000000	     -0.00498980	      0.00000000	      0.40963279	    -10.52053779	      6.75499494	     19.21987186
      0.03333333	     -1.76764601	     -9.90776250	    -12.66983794	     -0.83572659	      0.97682972	      0.32085267	    -22.84100336	     10.16029949	     14.98159019	    -10.82228639	      8.17931532	    -14.58768110	     18.24017732	     27.39968410	    -13.74121528	      5.05201487	    -11.65368251	     -3.92496800	     -1.30855151	      3.57328204	      0.00000000	     -0.00564620	      0.00000000	      0.35197044	    -10.32343382	      6.82139390	     19.21588224
      0.03750000	     -1.84450407	     -9.98549722	    -12.75250978	     -0.82972791	      0.97626927	      0.32045779	    -22.64700581	     10.20183191	     14.86468459	    -11.67486550	      7.70697946	    -14.69177846	     18.23004235	     27.11781299	    -13.78766189	      4.88998671	    -11.54021821	     -3.89833227	     -1.35375093	      3.77911995	      0.00000000	     -0.00644980	      0.00000000	     -0.13420958	    -10.27242720	      6.91736417	     19.15177591
